<mxfile host="app.diagrams.net" modified="2023-10-06T05:03:30.280Z" agent="Mozilla/5.0 (Windows NT 10.0; Win64; x64) AppleWebKit/537.36 (KHTML, like Gecko) Chrome/117.0.0.0 Safari/537.36 Edg/117.0.2045.47" version="22.0.3" etag="fBsG4pluccmczQo3zdGD" type="github">
  <diagram name="Page-1" id="vXpiMf0gugvnjxLhPmbx">
    <mxGraphModel>
      <root>
        <mxCell id="0" />
        <mxCell id="1" parent="0" />
      </root>
    </mxGraphModel>
  </diagram>
</mxfile>
